PathFileType	4	(X/Y/Z)	2014001\dynamic\2014001_C3_02.trc
DataRate	CameraRate	NumFrames	NumMarkers	Units	OrigDataRate	OrigDataStartFrame	OrigNumFrames
100.000000	100.000000	4	52	mm	100.000000	93	187
Frame#	Time	L_IAS			L_IPS			R_IPS			R_IAS			L_FTC			L_FLE			L_FME			L_FAX			L_TTC			L_FAL			L_TAM			L_FCC			L_FM1			L_FM2			L_FM5			R_FTC			R_FLE			R_FME			R_FAX			R_TTC			R_FAL			R_TAM			R_FCC			R_FM1			R_FM2			R_FM5			CV7			TV10			SXS			SJN			L_SIA			L_SRS			L_SAA			L_SAE			L_HLE			L_HME			L_UOA			L_RSP			L_UHE			L_HM2			L_HM5			R_SIA			R_SRS			R_SAA			R_SAE			R_HLE			R_HME			R_UOA			R_RSP			R_UHE			R_HM2			R_HM5			
		X1	Y1	Z1	X2	Y2	Z2	X3	Y3	Z3	X4	Y4	Z4	X5	Y5	Z5	X6	Y6	Z6	X7	Y7	Z7	X8	Y8	Z8	X9	Y9	Z9	X10	Y10	Z10	X11	Y11	Z11	X12	Y12	Z12	X13	Y13	Z13	X14	Y14	Z14	X15	Y15	Z15	X16	Y16	Z16	X17	Y17	Z17	X18	Y18	Z18	X19	Y19	Z19	X20	Y20	Z20	X21	Y21	Z21	X22	Y22	Z22	X23	Y23	Z23	X24	Y24	Z24	X25	Y25	Z25	X26	Y26	Z26	X27	Y27	Z27	X28	Y28	Z28	X29	Y29	Z29	X30	Y30	Z30	X31	Y31	Z31	X32	Y32	Z32	X33	Y33	Z33	X34	Y34	Z34	X35	Y35	Z35	X36	Y36	Z36	X37	Y37	Z37	X38	Y38	Z38	X39	Y39	Z39	X40	Y40	Z40	X41	Y41	Z41	X42	Y42	Z42	X43	Y43	Z43	X44	Y44	Z44	X45	Y45	Z45	X46	Y46	Z46	X47	Y47	Z47	X48	Y48	Z48	X49	Y49	Z49	X50	Y50	Z50	X51	Y51	Z51	X52	Y52	Z52	

94	0.93	70.99378204345706	880.4389648437505	164.3120117187501	136.9686584472657	920.7457885742192	341.4657287597657	226.5187377929689	916.8615112304692	345.9026184082032	310.0825500488282	889.6497192382817	172.9978790283204	16.09781646728516	792.249877929688	231.4016876220704	69.09087371826175	437.4981079101565	215.2430725097657	184.2561340332032	435.5374145507815	201.3128662109376	68.1568298339844	375.4046020507814	236.8210296630861	119.8428573608399	355.6618652343751	179.0140228271485	127.3451385498047	62.46149444580081	287.1992492675782	214.7652435302736	75.24731445312503	267.501678466797	172.1656951904297	24.58463096618654	332.5272827148439	203.7915191650392	23.52659988403321	154.2495880126954	142.0765991210938	35.31978988647462	142.4283599853516	94.09899902343753	22.96372795104981	195.774627685547	366.1098632812501	793.5664062500005	265.5101013183595	377.0896911621095	457.3110351562502	176.7201385498047	261.5800781250001	430.5111389160159	135.6420440673829	379.8041992187501	415.0014953613284	217.7832946777345	344.2862243652345	368.1869506835939	158.7122955322266	323.4131469726564	192.7862243652345	430.2335510253909	252.5030364990236	168.7785186767579	377.2982482910157	255.9254302978517	183.2826538085938	476.6388244628909	292.4886474609376	56.1764945983887	348.4105224609376	348.4281616210939	71.6333923339844	356.0628967285157	372.4760131835939	97.66367340087896	410.3791198730471	198.6995697021486	1386.595947265625	320.3163452148439	180.1800537109376	1151.153564453125	373.2081604003907	187.2712402343751	1165.348388671875	140.8761291503907	195.2963409423829	1326.568969726563	189.756820678711	87.45230102539065	1196.21044921875	374.3937072753907	105.385856628418	1326.736694335938	358.4798889160157	-2.175596714019776	1334.677734375	282.1908569335939	16.9806079864502	1345.296997070313	242.7407226562501	-70.51361846923831	1062.14892578125	238.6464691162111	-0.4530573785305025	1024.726806640625	272.2144165039064	-50.61699295043948	1022.986450195313	269.4934997558595	-12.34703254699708	847.6401977539067	116.4838409423829	-84.8567810058594	839.1520996093755	146.0360260009766	-10.83719921112061	776.0539550781255	65.89294433593753	-86.504264831543	761.546081542969	135.985824584961	292.3245849609376	1190.1826171875	387.4443969726565	277.1116943359376	1313.4677734375	363.4301147460939	383.4707641601564	1308.96630859375	293.868621826172	375.3675537109376	1315.41015625	243.9076385498048	430.1944274902346	1012.804626464844	295.2862243652345	349.9837341308595	999.6906738281255	312.4353942871095	395.4527893066409	992.791381835938	323.2954406738282	414.7499084472659	802.4043579101567	202.2529754638673	469.4376220703127	801.457885742188	266.1887512207032	429.3725280761721	708.5404052734377	185.2548522949219	467.4259338378909	723.5837402343752	278.7627563476564	
95	0.9400000000000001	69.53231048583987	880.2622680664067	156.0278625488282	136.6091003417969	921.0395507812505	332.5623474121095	226.2160797119142	917.377075195313	336.591522216797	308.5356750488282	890.9128417968755	163.1667633056641	15.57580852508546	792.0239257812505	223.4644470214845	68.66221618652347	437.4013977050784	213.0731964111329	183.7077789306641	435.110046386719	198.5379180908204	67.87099456787112	375.462615966797	235.1766052246095	119.341049194336	355.4951171875001	176.9700317382813	127.3772811889649	62.70660781860354	287.0873413085939	214.6966552734376	75.55413818359378	267.1073608398439	172.3324737548829	25.08498764038087	332.3538513183595	203.701629638672	23.63525009155274	154.2061004638672	141.9247131347657	35.3059768676758	142.3595428466797	94.00245666503909	22.98063850402833	195.7904815673829	365.9161682128907	794.7903442382817	254.5996704101564	376.168914794922	459.7949218750002	159.5187377929688	260.5297241210939	433.9121093750002	118.5572357177735	378.6688537597657	416.036804199219	199.4888000488282	343.5981445312501	371.3176269531251	138.840805053711	323.7368774414064	184.7191925048829	402.8344421386721	252.7938079833986	163.2158813476563	349.4634094238282	256.4985656738282	172.6773834228516	449.6421813964846	293.4337463378907	53.26895523071292	314.0201721191407	349.2431640625001	69.09917449951175	322.0631408691407	373.3323059082032	91.85308837890628	377.7453918457032	198.1277923583986	1387.182250976563	310.4641113281251	179.2442169189454	1151.881469726563	363.7009582519532	186.9046630859376	1165.739135742188	131.2924499511719	195.2263641357423	1326.988403320313	179.9309539794922	86.18546295166018	1197.137939453125	364.1389160156251	104.4648361206055	1327.553100585938	348.409393310547	-2.621331691741944	1335.859008789063	271.4524536132814	16.94092750549317	1346.50390625	232.1584320068361	-71.87152862548831	1063.98046875	224.6620635986329	-2.681559085845948	1025.740478515625	258.949432373047	-52.99874114990237	1024.064208984375	255.5542449951173	-11.61985874176026	852.2822265625005	99.1248397827149	-84.55200195312503	842.8453979492192	127.1359024047852	-9.194237709045414	781.8698120117192	46.72002410888673	-85.92009735107425	765.508728027344	115.1141738891602	290.6769409179689	1190.556884765625	378.526336669922	275.9619140625001	1313.870849609375	354.142547607422	382.6704711914064	1309.255249023438	285.4524230957032	375.1587524414064	1315.554443359375	235.3709716796876	429.5087585449221	1013.489685058594	290.359100341797	348.9665832519532	1000.520141601563	306.9034729003907	394.3881835937502	993.7700805664067	318.0131835937501	415.1076660156252	802.071166992188	199.3435668945314	468.8045043945315	801.8013305664067	263.9508056640626	430.1398620605471	708.084655761719	183.3263244628907	466.662536621094	724.0823364257815	277.1791992187501	
96	0.9500000000000001	68.21145629882815	879.9807128906255	147.7529754638672	136.373519897461	921.2269897460942	323.7210083007814	226.0125885009767	917.7465820312505	327.3898010253907	307.1080017089845	891.9094238281255	153.4530792236329	15.10088634490968	791.7573852539067	215.6719665527345	68.28454589843753	437.3096313476565	210.8438415527345	183.2003326416016	434.6557312011721	195.7258148193361	67.63401031494143	375.5230102539064	233.512908935547	118.8610153198243	355.3173828125001	174.9263610839844	127.4424591064454	62.96647262573245	286.9666137695314	214.6548767089845	75.8759460449219	266.6770324707032	172.5513916015626	25.5968532562256	332.1824645996095	203.5954895019532	23.76054954528809	154.1456451416016	141.7698516845704	35.31283187866212	142.2789459228516	93.92142486572268	23.00750923156739	195.8014221191407	365.7657775878907	795.7558593750005	243.8157043457032	375.1201477050782	462.0336914062502	142.6660156250001	259.3146362304689	437.1208496093752	102.0729751586915	377.4598693847657	416.7038269042971	181.4603881835938	342.6889953613282	374.3119506835939	119.2665710449219	324.1214294433595	176.037338256836	374.8809509277345	253.0436553955079	157.3003997802735	321.0838317871095	257.1638793945314	161.4770965576172	421.9294128417971	294.1921386718751	50.3077087402344	279.0606689453126	349.8822021484376	66.37479400634768	287.568817138672	374.100555419922	85.71466827392581	344.4490661621095	197.6204681396486	1387.606079101563	300.5993041992189	178.3845825195313	1152.458618164063	354.1976013183595	186.5538787841797	1165.96435546875	121.7111892700196	195.1620483398439	1327.235107421875	170.0980072021485	85.03159332275393	1197.854858398438	353.9150390625001	103.6363754272462	1328.176147460938	338.3761291503907	-2.994563579559327	1336.850708007813	260.9028625488282	16.90610885620118	1347.553588867188	221.7394104003907	-73.17036437988284	1065.657592773438	210.8978576660157	-4.74891233444214	1026.596069335938	245.7465362548829	-55.23538208007815	1025.0029296875	241.7757873535157	-10.87030410766602	856.9606933593755	81.8706970214844	-84.21357727050784	846.547241210938	108.4676055908204	-7.553015708923343	787.6389770507817	27.86927223205568	-85.29451751708987	769.5272827148442	94.52410888671878	289.1088256835939	1190.758666992188	369.5777893066407	274.8836059570314	1314.111694335938	344.8192749023439	381.9076538085939	1309.378051757813	276.9610290527345	374.9594116210939	1315.524780273438	226.7804107666017	428.9502258300784	1014.052917480469	285.4090881347657	348.112518310547	1001.19970703125	301.3750000000001	393.4669494628909	994.5971679687505	312.677947998047	415.5194396972659	801.678100585938	196.2765960693361	468.1914062500002	802.0125122070317	261.4936828613282	430.9992980957034	707.672058105469	181.0353698730469	465.8894653320315	724.4151611328127	275.2628479003907	
97	0.96	67.04700469970706	879.6033325195317	139.471664428711	136.2553863525391	921.3136596679692	314.930389404297	225.9010467529298	917.9724731445317	318.2972717285157	305.8232727050782	892.6279296875005	143.8624114990235	14.66611766815186	791.4675292968755	208.0565490722657	67.95304107666018	437.2259216308596	208.5520629882814	182.7235412597657	434.1824035644534	192.867401123047	67.44256591796878	375.591522216797	231.8345947265626	118.3936233520508	355.1201477050782	172.9022216796876	127.5418243408204	63.23768997192386	286.8422241210939	214.6456146240236	76.20832824707034	266.216766357422	172.8243713378907	26.11537170410158	332.0178527832032	203.4685516357423	23.89957237243653	154.063949584961	141.6101684570313	35.33415603637697	142.1862487792969	93.854606628418	23.0365333557129	195.8062591552736	365.6505737304689	796.448364257813	233.1714935302736	373.9513549804689	463.9921875000002	126.1714706420899	257.9458007812501	440.1027832031252	86.17438507080081	376.1864013671876	416.9908142089846	163.6981964111329	341.5572509765626	377.1416625976564	100.0209045410157	324.5479736328126	166.9160919189454	346.387420654297	253.2313079833986	151.1597900390626	292.177215576172	257.893035888672	149.8507537841797	393.4654235839846	294.8151245117189	47.40887832641603	243.615447998047	350.3973083496095	63.60123825073245	252.6696624755861	374.8064575195314	79.44678497314456	310.5497131347657	197.1754760742189	1387.869750976563	290.7095642089845	177.5964050292969	1152.885986328125	344.6927185058595	186.2308959960938	1166.0107421875	112.1360397338868	195.1080780029298	1327.303588867188	160.2480010986329	83.97661590576175	1198.373168945313	343.7161865234376	102.8962631225587	1328.616821289063	328.3589782714845	-3.305180311203005	1337.649658203125	250.4975433349611	16.87534523010255	1348.431884765625	211.4402770996095	-74.41877746582034	1067.16162109375	197.3975219726564	-6.64036321640015	1027.2861328125	232.6175994873048	-57.30750274658206	1025.785888671875	228.175994873047	-10.10254383087159	861.652709960938	64.71633911132815	-83.84423828125003	850.222778320313	90.07672882080081	-5.939299106597902	793.339965820313	9.343331336975101	-84.62229919433597	773.5586547851567	74.26222991943362	287.6304626464845	1190.809814453125	360.6014404296876	273.8817749023439	1314.20263671875	335.4542541503907	381.1900024414064	1309.334716796875	268.3805541992189	374.771942138672	1315.321166992188	218.1183166503907	428.495544433594	1014.487365722657	280.3767089843751	347.3964843750001	1001.72509765625	295.7885742187501	392.6760253906252	995.2739868164067	307.2527770996095	415.9567871093752	801.2021484375005	193.035614013672	467.6011047363284	802.0884399414067	258.7905883789064	431.9221496582034	707.263610839844	178.3956451416016	465.1272583007815	724.5813598632815	273.0142517089845	
